PathFileType	4	(X/Y/Z)	/Users/mathieubourgeois/Desktop/Analyse/Traitement/Sujet_04/Transformed_Static_Sujet_04_Tpose.trc
DataRate	CameraRate	NumFrames	NumMarkers	Units	OrigDataRate	OrigDataStartFrame	OrigNumFrames
120.000000	120.000000	4	36	mm	120.000000	148	296
Frame#	Time	RFHD			RANE			STRN			LANI			LKNE			T10			RHUM			RWRB			C7			LFWT			LTOE			RTOE			LWRA			LBWT			RBWT			RFWT			LKNI			RKNI			RKNE			LANE			RANI			LHEE			RHEE			LHUM			LRAD			RRAD			RWRA			LWRB			LFHD			LBHD			RBHD			RSHO			LSHO			CLAV			LCAR			RCAR			
		X1	Y1	Z1	X2	Y2	Z2	X3	Y3	Z3	X4	Y4	Z4	X5	Y5	Z5	X6	Y6	Z6	X7	Y7	Z7	X8	Y8	Z8	X9	Y9	Z9	X10	Y10	Z10	X11	Y11	Z11	X12	Y12	Z12	X13	Y13	Z13	X14	Y14	Z14	X15	Y15	Z15	X16	Y16	Z16	X17	Y17	Z17	X18	Y18	Z18	X19	Y19	Z19	X20	Y20	Z20	X21	Y21	Z21	X22	Y22	Z22	X23	Y23	Z23	X24	Y24	Z24	X25	Y25	Z25	X26	Y26	Z26	X27	Y27	Z27	X28	Y28	Z28	X29	Y29	Z29	X30	Y30	Z30	X31	Y31	Z31	X32	Y32	Z32	X33	Y33	Z33	X34	Y34	Z34	X35	Y35	Z35	X36	Y36	Z36	

149	1.233333333333333	-655.6875610351562	1780.75927734375	444.635528564453	-778.787353515625	91.35900878906251	190.3173675537109	-589.1806030273438	1329.191772460938	445.2643737792968	-553.79833984375	99.9246292114258	240.3858337402343	-434.0754394531251	542.4890747070312	263.1808776855468	-588.0721435546875	1316.169311523438	208.2626342773436	-1051.08837890625	1425.447631835938	305.8468017578123	-1325.647827148438	1510.495483398438	280.4046936035153	-597.0597534179688	1592.103759765625	268.0501708984373	-465.6622009277344	1063.399169921875	397.6803588867186	-484.3140869140626	35.52591323852542	420.8158569335937	-763.4515380859375	36.74663925170901	426.5738830566405	120.6327972412109	1579.631713867188	275.035430908203	-533.2188720703125	1111.105224609375	202.3519897460936	-661.99267578125	1110.406494140625	192.5765838623045	-760.2730102539062	1075.7421875	373.4035339355467	-553.330810546875	500.6502380371094	263.2215881347655	-666.5496826171875	503.7272644042969	285.8560180664061	-779.6179809570312	547.0942993164062	278.5459594726561	-466.2268371582031	85.91451263427736	190.9009857177734	-690.2225341796875	97.49290466308595	229.0104827880859	-526.012451171875	63.24090957641602	152.7001647949218	-732.1229248046875	72.04843139648439	150.341812133789	-132.9796752929688	1441.5	295.937286376953	-132.0368957519532	1488.246337890625	240.4349975585936	-1058.3935546875	1475.862426757812	256.5484619140623	-1309.198608398438	1556.249633789062	329.6888732910153	141.4008483886718	1502.641845703125	258.1904296874999	-523.1893920898438	1774.988037109375	431.1729125976561	-553.2682495117188	1733.725463867188	274.6514892578123	-689.1846923828125	1736.061157226562	297.6158447265623	-741.3353881835938	1576.132446289062	291.4103698730466	-442.7543029785157	1589.265014648438	304.962432861328	-586.6466064453125	1497.463012695312	400.3481445312498	233.6919555664062	1576.631591796875	240.2652130126953	-1418.596801757812	1563.666259765625	296.8448181152341	
150	1.241666666666667	-655.6610107421875	1780.759399414062	444.5680236816405	-778.7763061523438	91.37176513671876	190.3165435791015	-589.1471557617188	1329.168212890625	445.2316589355468	-553.80078125	99.92367553710939	240.3972625732421	-434.0576171875001	542.4965209960938	263.1558532714843	-588.0576782226562	1316.171752929688	208.2158050537108	-1051.057006835938	1425.493896484375	305.9398803710935	-1325.636840820312	1510.54541015625	280.553039550781	-597.0142211914062	1592.101318359375	268.0296630859373	-465.6502685546876	1063.404907226562	397.6653442382811	-484.3157043457032	35.53197097778323	420.8162231445312	-763.443603515625	36.75487136840823	426.5816040039061	120.6603622436523	1579.559692382812	275.1107788085936	-533.180908203125	1111.098510742188	202.3236694335936	-661.9736328125	1110.40087890625	192.545944213867	-760.26953125	1075.742797851562	373.3901977539061	-553.3173217773438	500.6515808105469	263.1980590820311	-666.534912109375	503.7264404296875	285.8488159179686	-779.61767578125	547.0811767578125	278.5214538574217	-466.2216796875	85.90872955322267	190.9037628173828	-690.22216796875	97.49092864990236	229.0097198486327	-526.009033203125	63.2544174194336	152.6909484863281	-732.1287231445312	72.05564117431642	150.3493194580077	-132.9877014160157	1441.433349609375	295.914337158203	-131.9878997802735	1488.201904296875	240.4657897949218	-1058.386596679688	1475.917114257812	256.6257629394529	-1309.176025390625	1556.271362304688	329.893615722656	141.4285888671875	1502.587036132812	258.2536621093749	-523.1607055664062	1774.967651367188	431.1864929199217	-553.1969604492188	1733.711303710938	274.6351623535155	-689.1173095703125	1736.055786132812	297.5498962402342	-741.29931640625	1576.133178710938	291.4101257324216	-442.7102355957032	1589.267822265625	304.9699401855467	-586.6085815429688	1497.45361328125	400.3428955078123	233.7423706054687	1576.58544921875	240.3619079589843	-1418.60595703125	1563.66943359375	297.0921936035153	
151	1.25	-655.6329345703125	1780.760009765625	444.5388793945311	-778.7804565429688	91.3631057739258	190.3195648193359	-589.1122436523438	1329.144775390625	445.1824340820311	-553.7966918945312	99.92245483398439	240.3964233398437	-433.9530029296876	541.9428100585938	263.0158081054686	-588.0318603515625	1316.166015625	208.2038421630858	-1051.043090820312	1425.534301757812	306.0318603515623	-1325.61279296875	1510.621826171875	280.7275085449216	-596.9976806640625	1592.10205078125	268.0143432617186	-465.6322937011719	1063.402465820312	397.6341857910155	-484.3211364746094	35.53332138061526	420.8082580566406	-763.4522705078125	36.75508117675784	426.5623779296874	120.6810150146484	1579.48876953125	275.1932373046874	-533.1685180664062	1111.099731445312	202.2923889160155	-661.9515991210938	1110.403686523438	192.5190429687499	-760.2540283203125	1075.748291015625	373.346710205078	-553.3071899414062	500.6408996582031	263.1677246093749	-666.53076171875	503.7198181152344	285.8268737792968	-779.6110229492188	547.0878295898438	278.5296020507811	-466.0577087402344	85.54804992675783	191.0917053222656	-690.2205200195312	97.4884490966797	229.0147247314452	-526.0035400390625	63.24006271362305	152.6864776611328	-732.1279907226562	72.05763244628908	150.3342895507812	-132.9780426025391	1441.362548828125	295.8840942382811	-131.9582824707032	1488.167846679688	240.4852752685546	-1058.370849609375	1475.968872070312	256.7196960449216	-1309.150024414062	1556.307983398438	330.0884094238278	141.4521331787109	1502.532470703125	258.334991455078	-523.13916015625	1774.94970703125	431.1801147460936	-553.1234741210938	1733.69775390625	274.6221618652342	-689.0620727539062	1736.072021484375	297.4961547851561	-741.2713623046875	1576.133666992188	291.4230957031248	-442.6957092285157	1589.264770507812	304.9604492187498	-586.5746459960938	1497.425537109375	400.350128173828	233.765640258789	1576.552856445312	240.491714477539	-1418.599365234375	1563.700439453125	297.3358154296872	
152	1.258333333333333	-655.5794677734375	1780.764526367188	444.492950439453	-778.7711181640625	91.35047149658205	190.3296813964843	-589.0885009765625	1329.116821289062	445.1463317871093	-553.7794189453125	99.9213333129883	240.3700866699218	-434.0404968261719	542.4803466796875	263.118927001953	-588.0137329101562	1316.178833007812	208.1805572509764	-1051.035400390625	1425.580322265625	306.1201171874998	-1325.60498046875	1510.706787109375	280.900939941406	-596.9833374023438	1592.100219726562	268.0057373046873	-465.6273803710938	1063.394775390625	397.6060180664061	-484.3252258300782	35.53026199340823	420.8180847167968	-763.4573974609375	36.75533294677737	426.5739135742186	120.6810684204101	1579.4482421875	275.2764587402343	-533.1707153320312	1111.081909179688	202.2550659179686	-661.942626953125	1110.383178710938	192.4823760986327	-760.2471313476562	1075.7490234375	373.3191528320311	-553.301025390625	500.6396179199219	263.1408691406249	-666.5303344726562	503.729248046875	285.8213806152343	-779.6043701171875	547.0886840820312	278.513458251953	-466.2103881835938	85.89971160888673	190.9050292968749	-690.2242431640625	97.49185943603517	229.0149536132812	-526.0034790039062	63.24011230468751	152.6864929199218	-732.1249389648438	72.04412078857423	150.3443298339843	-132.9627532958985	1441.309326171875	295.8621520996093	-131.9215545654297	1488.134155273438	240.4915771484374	-1058.367797851562	1476.0205078125	256.8250427246091	-1309.129150390625	1556.3427734375	330.305969238281	141.4704895019531	1502.484375	258.4320678710936	-523.0933227539062	1774.915283203125	431.1557617187498	-553.0587158203125	1733.66650390625	274.5977172851561	-689.0038452148438	1736.08056640625	297.461944580078	-741.249755859375	1576.122680664062	291.414611816406	-442.6837768554688	1589.252685546875	304.9629821777342	-586.5540771484375	1497.40234375	400.3429565429686	233.7880249023437	1576.538696289062	240.6149749755859	-1418.581298828125	1563.769165039062	297.5944213867185	
